<svg id="Warstwa_1" data-name="Warstwa 1" xmlns="http://www.w3.org/2000/svg" viewBox="0 0 470.71 481.91" width="200" height="200">
  <defs>
    <style>

    </style>
  </defs>
  <g>
    <path d="M303.07,470.75c-25.37-5.24-31.58-16.31-20.36-34.82-15.27-16.23-15.29-24.1-1.57-36.61-1.79-32.08-23.34-50.54-44.54-68.94-20.79-18-44.69-30.23-72-35.18-2.93-.53-5.54-2.79-8.3-4.24,1.79-2.5,3-6,5.45-7.36,35.56-20.49,65.4-47.08,88.24-81.33.41-.61,1.43-.81,5.06-2.72l55.74,52.62c-7.47-39.25-34.18-67.22-59.13-98.74,5.82-1.27,9.91-2.76,14.07-3,36.16-2,72.35-3.42,108.49-5.66,9.21-.56,14.41,2.3,18.53,10.62,13.54,27.37,23.7,55.46,22.39,86.93,12.34-21.46,17.43-44.71,20.67-68.42,2.21-16.19,2-15.92,18.58-13.74,26,3.42,52,6.71,78.07,8.73,9.54.74,11.66,4.09,11.9,12.75,1.49,54.7-18.19,100.77-56,139.57-2.87,2.93-6.65,5-10.21,7.56,11.75,15.64,21.23,29.83,32.48,42.44,4.35,4.88,12.58,8.32,19.26,8.71,27,1.61,54.09,2.16,81.14,2.26,10.54,0,15.86,4.14,15.9,14.37.1,21.61.29,43.24-.48,64.83-.42,11.65-10,13.35-19.09,13.31-22.06-.11-44.14-.34-66.18-1.35-20.77-.95-39.66,2-58.62,12.6-13.16,7.35-30.15,10-45.6,10.67-36.1,1.54-72.3.67-108.45.61a47.9,47.9,0,0,1-12.3-1.76C302.6,491.78,299.25,485.47,303.07,470.75ZM414.5,489.36c25.12-1.4,49.54-1.24,72.62-14.46,11.28-6.45,25.86-7.74,39.18-9.84,9.23-1.45,18.87-.28,31.78-.28-4.13-6.33-6.26-10.93-9.56-14.43-12.15-12.88-12.5-28-1.63-41.59,3.7-4.63,5-11.15,7.8-17.67-44.56-5.17-46-4.25-64.57-33.33-15.5-24.28-37.17-33-63.7-34.93-5.81-.43-11.63-.93-17.45-1.08-33.55-.87-64.68-6.78-85.54-37.26-4.45-6.51-11.64-5.13-12.4,2.74-1,9.9-2,22,2.58,29.81,13.15,22.43,31.92,39.14,59.51,42.49,23.42,2.84,28.64,7.68,27.29,31C398.77,419,408,441,432.68,456.05c2,1.23,2.45,5,3.62,7.63-2.62,0-5.93.93-7.74-.31-8.16-5.57-15.89-11.77-23.65-17.65l-6.7,13.51C417.56,468.66,418.51,470.36,414.5,489.36Zm-25.34-72.73c0-1.72,0-3.44,0-5.15-4.11-2.41-8.19-6.82-12.34-6.89-28.53-.45-57.09-.48-85.58.73-3.87.16-10.29,7.83-10.5,12.25-.38,8.29,7.29,9.83,14.53,9.54,22.89-.88,45.82-1.16,68.63-3C372.45,423.47,380.74,419.24,389.16,416.63Zm9.54,31.31c-6.85-4.78-9.78-8.21-13.34-9.07-30-7.27-60.2-5-90.13.4-3.62.66-6,8.23-9,12.59,4.41,2.93,8.86,8.41,13.24,8.36q37.37-.42,74.69-3.37C381.38,456.28,388.25,451.88,398.7,447.94Zm-57.35-81.42c0,.5-.05,1-.08,1.5-8.31,0-16.68-.6-24.91.18s-16.52,2.07-24.12,4.92c-3,1.13-6.19,7.3-5.75,10.71s5.52,8.54,8.43,8.45q42.88-1.25,85.69-4.5c3.41-.26,6.39-6,9.56-9.24-3.08-2.86-5.86-7.7-9.31-8.24C367.81,368.29,354.54,367.66,341.35,366.52Zm242.33,98.76c11.39,0,19.64.44,27.8-.27,2.4-.21,6.43-3.63,6.47-5.65.47-22.63.3-45.28.3-69.3H583.73c3.24,7.38,4.46,13.35,7.91,17.43,11.86,14,11.75,28.46-.5,42.46C587.88,453.68,586.58,459.14,583.68,465.28Zm-13.94-61.86c-14,0-25.77,11.13-26.1,24.8-.33,14.2,11.56,26.08,26.09,26,14.12,0,25.77-11.11,26.08-24.81C596.14,415.22,584.33,403.43,569.74,403.42ZM308.36,479.86c13.39,12.42,89.68,9.27,99-3.44C393.22,464.5,322.62,466.52,308.36,479.86Z" transform="translate(-156.25 -144.73)"/>
    <path fill="#008148" d="M454.28,616.35V576.24l-3.45-.87c-1,4.46-2.52,8.87-2.94,13.38-.62,6.56.65,13.47-.9,19.73-2.41,9.77-9.21,15.6-20,15.35-10.32-.25-15.67-6.61-18.5-15.65a20.6,20.6,0,0,1-1.14-8.61c2-14.4,0-26.44-17.87-29.64,22.45-19.63,44-20.2,75.68-2.53-17.17,14.08,4,33.57-6.94,48.9Zm-35.16-33c-3,13.33-5.55,23.82,4.08,31.57,2.11,1.69,10.4.17,10.78-1.23,2.15-8,4.23-16.67,3.06-24.62C436.67,586.54,426.27,585.48,419.12,583.35Z" transform="translate(-156.25 -144.73)"/>
    <path fill="#008148" d="M385.38,574.16c0,14.41.28,29.31-.32,44.17-.08,2.14-4.43,4.1-9.32,8.3V586.69l-2.43-.66-14.07,38-3.86.18q-7.06-19-14.12-38l-2.19.43c0,9.74.29,19.5-.2,29.22-.12,2.56-2.63,5-4,7.5-1.27-2.21-3.58-4.4-3.63-6.65-.34-14.08-.17-28.17-.17-42.86,25.25-5.3,17.62,18.83,28.13,28.48,2.16-6,5-11.62,6.23-17.61C367.62,573.51,373.73,570.39,385.38,574.16Z" transform="translate(-156.25 -144.73)"/>
    <path fill="#008148" d="M512.35,602.06V570.9l3.63-1.12c1.37,2.45,3.84,4.86,3.93,7.36.42,12.07.4,24.16.05,36.23-.09,2.83-2.08,5.61-3.19,8.42-3.12-1.46-7.4-2.09-9.15-4.53-6.74-9.42-12.67-19.42-21.36-29V622c-8.86-3.51-10.54-19.45-7.06-51.92C500,570.36,497.73,593.92,512.35,602.06Z" transform="translate(-156.25 -144.73)"/>
    <path fill="#008148" d="M542.32,600.76V613.7c6.63,0,12.75-.35,18.8.18,2.29.2,4.4,2.43,6.59,3.73-2,1.49-4,4.14-6,4.25-9.43.46-18.9.2-29.08.2V571.92h34.85c.07,1.48.15,3,.22,4.46l-25.31,2.26c-.17,3.74-.34,7.63-.55,12.22L562,592.94c.23,1.49.45,3,.68,4.45Z" transform="translate(-156.25 -144.73)"/>
    <path d="M319.86,621.26c-7.81,1.29-14.2,3.77-20.09,2.88-4.76-.71-11.69-4.73-12.74-8.61-2.12-7.79-1.11-16.5-.81-24.8.06-1.62,2.81-3.14,4.32-4.7,1.67,1.8,4.52,3.44,4.78,5.42.68,5.33-.42,10.93.51,16.18.6,3.37,3.55,6.32,5.44,9.46,3-3,7.52-5.41,8.63-9,1.56-4.95.2-10.76.89-16.09.28-2.14,2.69-4,4.13-6,1.65,1.9,4.62,3.73,4.72,5.71C320.12,601.73,319.86,611.73,319.86,621.26Z" transform="translate(-156.25 -144.73)"/>
    <path d="M277.17,588.16c-18.92,12.23-.66,22.21,1,35.31-13.2,1.1-11.47-13.35-20.13-18-2.37,4.25-4.71,8.66-7.28,12.94a45.51,45.51,0,0,1-4,5c-1.5-1.55-4.25-3.07-4.29-4.66q-.51-20.54,0-41.09c0-1.59,2.76-3.11,4.24-4.67,1.34,1.67,3.74,3.27,3.84,5,.44,7.43.19,14.91.19,24.12l23.34-17.82C275.15,585.55,276.16,586.86,277.17,588.16Z" transform="translate(-156.25 -144.73)"/>
    <path fill="#008148" d="M570.12,571.22c17.31-4.66,15.54,12.88,24,17.87,8.63-3.62,5.9-20.7,21.73-18.33-3.66,6.19-7.55,11.21-9.75,16.88-3.19,8.24-4.94,17-7.78,25.42-1.09,3.19-3.51,5.94-5.32,8.88-1.65-2.68-5-5.61-4.67-8,1.77-12.39-4.79-21.43-10.9-30.82C575,579.37,572.77,575.53,570.12,571.22Z" transform="translate(-156.25 -144.73)"/>
    <path d="M225.41,612.06c-3.69-1.19-7.32-2.71-11.1-3.52-7.46-1.59-15.52-4.61-12.33-13.16,1.75-4.69,10.17-8.12,16.19-9.54,3.88-.91,8.87,2.86,13.36,4.53l-1.13,3.53-19.68-1.5-.77,4.83c4.8,1.37,10.16,1.84,14.26,4.36s9.47,7.1,9.41,10.69c-.06,3.77-5.24,9.06-9.4,10.82-8.5,3.61-17,2-25.45-7.61l26,1.32C225,615.23,225.2,613.65,225.41,612.06Z" transform="translate(-156.25 -144.73)"/>
  </g>
</svg>
